<svg height="512pt" viewBox="0 0 512 512" width="512pt" xmlns="http://www.w3.org/2000/svg" xmlns:xlink="http://www.w3.org/1999/xlink"><linearGradient id="a" gradientTransform="matrix(1 0 0 -1 0 -9462)" gradientUnits="userSpaceOnUse" x1="0" x2="512" y1="-9718" y2="-9718"><stop offset="0" stop-color="#00f38d"/><stop offset="1" stop-color="#009eff"/></linearGradient><path d="m512 256c0 141.386719-114.613281 256-256 256s-256-114.613281-256-256 114.613281-256 256-256 256 114.613281 256 256zm0 0" fill="url(#a)"/><g fill="#fff"><path d="m394.089844 180.289062-11.980469-15.582031c-.078125-1.320312-.050781-3.273437-.035156-4.574219.011719-.808593.019531-1.597656.019531-2.351562v-20.875c0-15.472656-10.363281-28.066406-27.050781-32.871094l-20.863281-6.007812c-1.152344-.335938-2.15625-1.050782-2.824219-2.023438l-12.230469-17.777344c-9.015625-13.109374-25.808594-18.535156-40.835938-13.191406l-20.511718 7.292969c-1.144532.40625-2.40625.40625-3.550782 0l-20.515624-7.292969c-15.027344-5.34375-31.820313.082032-40.832032 13.1875l-12.234375 17.785156c-.597656.867188-1.464843 1.535157-2.472656 1.902344l-21.492187 4.515625c-.359376.078125-.714844.164063-1.066407.265625-15.539062 4.476563-26.078125 18.617188-25.707031 34.449219v21.386719c0 .773437.015625 1.578125.03125 2.410156.023438 1.035156.054688 2.609375-.007812 3.609375l-12.039063 15.773437c-9.847656 12.648438-9.839844 30.269532.019531 42.914063l12.027344 15.664063c.050781 1.003906.023438 2.59375.003906 3.832031-.019531.988281-.035156 2-.035156 3.035156v21.425781c-.328125 14.808594 10.261719 27.46875 27.054688 32.304688l12.386718 3.566406v141.464844l86.648438-52.257813 86.660156 52.296875v-141.507812l12.386719-3.566406c15.074219-4.339844 27.40625-21.476563 27.050781-37.519532v-20.683594c0-.839843 0-1.980468.042969-2.792968l11.910156-15.207032c9.910156-12.65625 9.925781-30.328124.042969-43zm-138.085938 176.941407-56.660156 34.167969v-59.015626c9.382812 7.796876 22.429688 10.351563 34.367188 6.109376l20.515624-7.292969c1.144532-.40625 2.40625-.40625 3.550782 0l20.511718 7.292969c3.871094 1.375 7.859376 2.039062 11.804688 2.039062 8.214844 0 16.222656-2.890625 22.5625-8.160156v59.050781zm114.425782-152.4375-13.25 16.910156c-.25.324219-.492188.65625-.714844 1-4.371094 6.632813-4.371094 13.824219-4.371094 18.585937v20.875c0 .15625.003906.3125.007812.46875.082032 2.582032-3.402343 7.410157-5.363281 8.03125l-20.859375 6.007813c-7.8125 2.25-14.648437 7.171875-19.242187 13.847656l-12.230469 17.78125c-1.328125 1.929688-3.816406 2.722657-6.066406 1.925781l-20.515625-7.292968c-3.8125-1.355469-7.816407-2.035156-11.820313-2.035156-4.007812 0-8.015625.679687-11.824218 2.035156l-20.515626 7.292968c-2.25.796876-4.742187.003907-6.066406-1.925781l-12.230468-17.777343c-4.59375-6.683594-11.429688-11.601563-19.242188-13.851563l-20.859375-6.007813c-3.1875-.917968-4.929687-2.289062-5.359375-2.890624 0-.128907.003906-.261719.003906-.390626v-21.621093c0-.855469.015625-1.695313.027344-2.515625.105469-6.039063.25-14.304688-5.398438-21.574219l-12.875-16.769531c-.027343-.035156-.058593-.074219-.085937-.113282-1.398437-1.78125-1.398437-4.273437 0-6.058593.035156-.046875.074219-.097657.113281-.148438l12.867188-16.859375c5.667968-7.320312 5.488281-16.132812 5.378906-21.40625-.015625-.617187-.027344-1.21875-.027344-1.789062v-21.585938c0-.15625-.003906-.3125-.007812-.46875-.0625-2.035156 1.484375-4.054687 3.65625-4.835937l21.5-4.519531c.359375-.074219.714844-.164063 1.066406-.265626 7.816406-2.25 14.648438-7.167968 19.242188-13.847656l12.230468-17.78125c1.328125-1.929687 3.820313-2.71875 6.066406-1.921875l20.515626 7.292969c7.625 2.710938 16.019531 2.710938 23.644531 0l20.515625-7.292969c2.246094-.796875 4.738281-.007812 6.066406 1.921875l12.230469 17.78125c4.59375 6.679688 11.429687 11.597656 19.242187 13.847656l20.863282 6.007813c.894531.257813 5.351562 1.664063 5.351562 4.042969v20.878906c0 .632812-.007812 1.292969-.015625 1.972656-.085937 6.726563-.199219 15.824219 5.761719 22.601563l12.503906 16.269531c.027344.035156.058594.074219.085938.109375 1.394531 1.785156 1.394531 4.273437 0 6.058594zm0 0"/><path d="m219.9375 173.574219 21.0625 18.054687v70.625h30v-120.964844h-23.390625zm0 0"/></g></svg>