<svg id="Layer_1" height="512" viewBox="0 0 64 64" width="512" xmlns="http://www.w3.org/2000/svg" data-name="Layer 1"><path d="m17 32h4a2 2 0 0 0 0-4h-4a2 2 0 0 0 0 4z"/><path d="m43 32h4a2 2 0 0 0 0-4h-4a2 2 0 0 0 0 4z"/><path d="m30 32h4a2 2 0 0 0 0-4h-4a2 2 0 0 0 0 4z"/><path d="m17 40h4a2 2 0 0 0 0-4h-4a2 2 0 0 0 0 4z"/><path d="m43 40h4a2 2 0 0 0 0-4h-4a2 2 0 0 0 0 4z"/><path d="m30 40h4a2 2 0 0 0 0-4h-4a2 2 0 0 0 0 4z"/><path d="m17 48h4a2 2 0 0 0 0-4h-4a2 2 0 0 0 0 4z"/><path d="m43 48h4a2 2 0 0 0 0-4h-4a2 2 0 0 0 0 4z"/><path d="m30 48h4a2 2 0 0 0 0-4h-4a2 2 0 0 0 0 4z"/><path d="m46 11h-.221v2.44a2 2 0 0 1 -4 0v-3.94a1.988 1.988 0 0 1 .637-1.456 1.971 1.971 0 0 0 -.416-.044 2 2 0 0 0 -2 2v1h-14.221v2.44a2 2 0 1 1 -4 0v-3.94a1.988 1.988 0 0 1 .637-1.456 1.971 1.971 0 0 0 -.416-.044 2 2 0 0 0 -2 2v1h-2a10.011 10.011 0 0 0 -10 10v25a10.011 10.011 0 0 0 10 10h28a10.011 10.011 0 0 0 10-10v-25a10.011 10.011 0 0 0 -10-10zm6 35a6.006 6.006 0 0 1 -6 6h-28a6.006 6.006 0 0 1 -6-6v-21h40z"/></svg>