<svg height="512" viewBox="0 0 152 152" width="512" xmlns="http://www.w3.org/2000/svg" xmlns:xlink="http://www.w3.org/1999/xlink"><linearGradient id="linear-gradient" gradientUnits="userSpaceOnUse" x1="22.32" x2="129.68" y1="22.32" y2="129.68"><stop offset="0" stop-color="#00f190"/><stop offset="1" stop-color="#00a1fb"/></linearGradient><g id="Layer_2" data-name="Layer 2"><g id="_55.oval_callout" data-name="55.oval callout"><rect id="background" fill="url(#linear-gradient)" height="152" rx="76" width="152"/><path id="icon" d="m47.92 95.27a29.64 29.64 0 0 1 -9.55-21.48c0-17.79 16.88-32.25 37.63-32.25s37.63 14.46 37.63 32.25-16.88 32.21-37.63 32.21a44.19 44.19 0 0 1 -7.89-.71l-19.27 12.25zm28.08-41.19c-13.83 0-25.08 8.85-25.08 19.71 0 4.81 2.28 9.47 6.43 13.11l2.89 2.53.24 5.89 5.25-3.32 3.59.79a31.56 31.56 0 0 0 6.68.71c13.83 0 25.08-8.84 25.08-19.71s-11.25-19.71-25.08-19.71z" fill="#fff"/></g></g></svg>