<svg height="512pt" viewBox="0 0 512 512" width="512pt" xmlns="http://www.w3.org/2000/svg" xmlns:xlink="http://www.w3.org/1999/xlink"><linearGradient id="a" gradientUnits="userSpaceOnUse" x1="0" x2="512" y1="256" y2="256"><stop offset="0" stop-color="#00f38d"/><stop offset="1" stop-color="#009eff"/></linearGradient><path d="m512 256c0 141.386719-114.613281 256-256 256s-256-114.613281-256-256 114.613281-256 256-256 256 114.613281 256 256zm0 0" fill="url(#a)"/><g fill="#fff"><path d="m429.875 277.570312c0-12.292968-5.589844-23.300781-14.355469-30.625 3.140625-5.699218 4.929688-12.238281 4.929688-19.191406 0-22.003906-17.902344-39.90625-39.90625-39.90625h-93.011719c-3.402344 0-5.460938-1.898437-6.386719-3.03125-.925781-1.128906-2.371093-3.523437-1.695312-6.859375l11.699219-57.480469c2.234374-10.976562.058593-22.164062-6.121094-31.503906-6.179688-9.335937-15.628906-15.710937-26.601563-17.945312-19.875-4.042969-38.382812 7.210937-48.351562 29.386718l-42.25 87.433594h-85.695313v229.9375h280.765625c23.207031 0 40.050781-17.230468 40.050781-40.96875 0-5.261718-1.136718-10.324218-3.175781-14.96875 11.925781-6.929687 19.960938-19.777344 19.960938-34.460937 0-6.78125-1.714844-13.167969-4.734375-18.765625 9.066406-7.320313 14.878906-18.519532 14.878906-31.050782zm-317.746094 110.214844v-169.9375h19.917969c24.8125 0 45 20.183594 45 45v79.9375c0 24.8125-20.1875 45-45 45zm250.765625 0h-170.890625c9.4375-12.546875 15.042969-28.128906 15.042969-45v-79.9375c0-18.78125-6.957031-35.957031-18.40625-49.128906l48.539063-100.449219.199218-.421875c1.898438-4.269531 7.179688-14.03125 15.0625-12.421875 6.445313 1.3125 10.621094 7.621094 9.308594 14.066407l-11.699219 57.480468c-2.296875 11.296875.566407 22.898438 7.859375 31.824219 7.296875 8.929687 18.089844 14.050781 29.617188 14.050781h93.011718c5.371094 0 9.910157 4.535156 9.910157 9.90625s-4.539063 9.90625-9.910157 9.90625h-30.964843v30h40.390625c5.371094 0 9.910156 4.539063 9.910156 9.910156 0 5.371094-4.539062 9.90625-9.910156 9.90625h-40.175782v30h29.75c5.523438 0 10.191407 4.539063 10.191407 9.910157 0 5.371093-4.667969 9.90625-10.191407 9.90625h-29.964843v30h12.40625c5.175781 0 10.964843 4.074219 10.964843 9.523437 0 4.097656-1.304687 10.96875-10.050781 10.96875zm0 0"/><path d="m157.714844 355.660156c0 7.4375-6.027344 13.464844-13.464844 13.464844s-13.464844-6.027344-13.464844-13.464844c0-7.433594 6.027344-13.464844 13.464844-13.464844s13.464844 6.03125 13.464844 13.464844zm0 0"/></g></svg>