<svg id="Layer_2" height="512" viewBox="0 0 40 40" width="512"  xmlns="http://www.w3.org/2000/svg" data-name="Layer 2"><circle cx="20" cy="20" r="2"/><path d="m20 14c-5.352 0-8.165 4.614-8.89 6 .723 1.408 3.494 6 8.89 6 5.352 0 8.164-4.614 8.89-6-.725-1.414-3.496-6-8.89-6zm0 10a4 4 0 1 1 4-4 4 4 0 0 1 -4 4z"/><path d="m20 2a18 18 0 1 0 18 18 18.021 18.021 0 0 0 -18-18zm10.919 18.394c-.133.306-3.347 7.606-10.919 7.606s-10.786-7.3-10.919-7.606a1 1 0 0 1 0-.788c.133-.306 3.347-7.606 10.919-7.606s10.786 7.3 10.919 7.606a1 1 0 0 1 0 .788z"/></svg>