<svg id="Layer_1" enable-background="new 0 0 50 50" height="512" viewBox="0 0 50 50" width="512" xmlns="http://www.w3.org/2000/svg"><g id="_x32_3"><g><g><path d="m29.3944931 11.6817207v7.3498974h-21.3702021v-7.3498974c0-5.9012127 4.7838783-10.685091 10.6850901-10.685091h.0000229c5.9012127.0000003 10.6850891 4.7838783 10.6850891 10.685091z" fill="#2d2c2c"/></g></g><g><g><path d="m36.5828094 41.5678368v3.4103851c0 2.2155838-1.7960854 4.0116692-4.0116653 4.0116692h-26.7202492c-2.2155826 0-4.0116673-1.7960854-4.0116673-4.0116692v-3.4103851c0-3.7499809 1.9483474-7.2130775 5.1807203-9.1826172 1.1925392-.7264328 2.5493708-1.2198105 4.0020666-1.4117088.0821457-.0137177.6578379-.0274372 1.5487289-.0274372.396183-.0136738.8603363-.0137196 1.3654604-.0137196h10.5336981c.5061474 0 .9710789.0000267 1.3676739.0137196.891058 0 1.4803009.0137196 1.5626144.0274372 1.6034374.2193356 3.0837383.8087463 4.3719749 1.6720314 2.6159803 1.6008224 4.8106443 4.9788284 4.8106443 8.9222946z" fill="#5bc658"/></g></g><g opacity=".3"><g><g><path d="m4.5983047 41.9944153c-.0080309 0-.0147228 0-.0227532 0-.3787751-.0133858-.6745679-.3305931-.6625221-.7080269.0610886-1.7619247.6019061-3.4342117 1.6824038-4.8718796.2261944-.2998085.6558299-.3640518.9596529-.1351814.302485.2261963.3627143.6558304.1351814.9596519-.8965545 1.1946716-1.3581934 2.5895882-1.4066877 4.0929146-.0133843.3707428-.3172073.6625214-.6852751.6625214z" fill="#fff"/></g></g></g><g opacity=".3"><g><g><path d="m7.3313746 35.5110703c-.2221794-.3064995-.1525807-.7347984.1539192-.9569778.1713185-.1244736.345314-.2422523.5219865-.353344.3225613-.1994247.7441664-.1043968.9449301.2168274.2007647.3212204.1030588.7441635-.2168245.9449272-.1525812.0950279-.2998085.1967506-.4470358.3024864-.3142071.2244339-.7382593.1479072-.9569755-.1539192z" fill="#fff"/></g></g></g><g><g><path d="m25.8375759 30.9460735v.3014812c0 3.6595955-2.9739876 6.6335831-6.6332493 6.6335831-3.6595964 0-6.6335831-2.9739876-6.6335831-6.6335831v-.3014812c.3975124-.0137196.8634529-.0137196 1.3705502-.0137196 2.9739876-.0274372 7.5517445-.0274372 10.525732 0 .5072632.0000001.9732037.0000001 1.3705502.0137196z" fill="#49a147"/></g></g><g><g><path d="m36.5897141 41.5667343v3.4096603c0 2.2202568-1.7999268 4.020237-4.0201836 4.020237h-26.7218733c-1.6176186 0-3.005255-.9596138-3.6316562-2.3472519.4361045.1666794.9039576.2617302 1.3955734.2617302h26.7298086c2.2202587 0 4.0122509-1.7999763 4.0122509-4.0200424v-3.4096565c0-2.8168678-1.2623634-5.5928688-2.3549957-6.684391 2.4311904 1.5035095 4.5910759 4.9106254 4.5910759 8.7697143z" fill="#49a247"/></g></g><g><g><path d="m23.102951 27.8835754-.000019 3.3580246c-.0000114 2.1510124-1.7437572 3.8947487-3.8947716 3.8947487h-.0000076c-2.1510296 0-3.8947821-1.743763-3.8947706-3.8947926l.0000191-3.3579807c1.2023191.8430271 2.3459272 1.3462276 3.8947744 1.3462276 1.5486888.0000001 2.6922969-.5032004 3.8947753-1.3462276z" fill="#f7c9a9"/></g></g><g><g><path d="m23.0964756 27.8897724v3.3577824c0 1.2062569-.5480862 2.2890472-1.4115391 3.0015907.0547066-.2467728.0821457-.5070953.0821457-.7674217v-.0000038c0-1.3622322-1.2377205-2.4451752-2.5682373-2.1529388-.4118614.0904617-.8485966.1382751-1.3240795.1382751-.9732037 0-1.7953339-.2057838-2.5629215-.5621395v-3.0151443c1.2060909.8361835 2.3435879 1.3431129 3.8924828 1.3431129 1.548561 0 2.6999435-.5069294 3.8921489-1.343113z" fill="#e8aa80"/></g></g><g><g><path d="m28.0085812 16.9775238v4.1528072c0 4.9341145-3.9882641 8.9222946-8.9222965 8.9222946-2.4669724 0-4.7009764-1.0004749-6.3182154-2.61763-1.6035204-1.6037712-2.6040792-3.8376083-2.6040792-6.3046646v-3.6043873l.9046097-2.4944944c.0137196-.3014812.2466888-.5618057.5481701-.6303997 1.0279131-.1920643 3.3578653-.8361835 4.7969265-2.7959766.2604065-.3563557.7812233-.3975124 1.0690689-.068594 1.0553493 1.2333612 3.7415752 3.440094 9.1689835 3.028862.41115-.0411558.7537861.2743778.7537861.6715565z" fill="#f7c9a9"/></g></g><g><g><path d="m28.0115795 20.0869846v1.0448475c0 4.9280205-4.0001545 8.9282703-8.928175 8.9282703-2.4640579 0-4.69415-.9981117-6.3082991-2.6122608-1.6140547-1.6218586-2.6121664-3.8519516-2.6121664-6.3160095v-1.0448475c0 2.4639626.9981117 4.6941509 2.6121664 6.3160095 1.6141491 1.6140537 3.8442411 2.6121655 6.3082991 2.6121655 4.9280205 0 8.928175-4.0001545 8.928175-8.928175z" fill="#f0b68e"/></g></g><g><g><path d="m28.0099525 14.4855118v6.6555328c1.8074703-.038641 3.2643528-1.5112228 3.2643528-3.3277187 0-1.8166847-1.4568824-3.2892676-3.2643528-3.3278141z" fill="#f7c9a9"/></g></g><g><g><path d="m10.159667 14.4855118v6.6555328c-1.8074703-.038641-3.2643523-1.5112228-3.2643523-3.3277187 0-1.8166847 1.456882-3.2892676 3.2643523-3.3278141z" fill="#f7c9a9"/></g></g><g><g><path d="m31.2709084 17.8100605c0 1.8167992-1.4502392 3.2906456-3.2593288 3.3295765v-.6160374c1.6920109-.0389309 3.0799999-1.333353 3.2437191-2.9942398.0078048.0935669.0156097.1871338.0156097.2807007z" fill="#f0b68e"/></g></g><g><g><path d="m10.1629391 20.5235996v.6160374c-1.8089933-.0389309-3.2672296-1.5127773-3.2672296-3.3295765 0-.0935669.0078053-.1871338.0156107-.2807007.1715236 1.6608868 1.5517078 2.9553089 3.2516189 2.9942398z" fill="#f0b68e"/></g></g><g><g><path d="m20.348608 22.0119762c.2124023.3336182.1633301.8155518-.0947266 1.1695557-.2485352.3677368-.7084961.5903931-1.168457.5963745-.4624023-.003418-.9228516-.227417-1.1716309-.5953369-.2578125-.3543091-.3066406-.8369141-.0927734-1.1705933.2119141.3297729.4338379.5056763.645752.6199341.2177734.104187.4155273.1536865.6166992.1466064.2036133.0078125.4020996-.0422363.6201172-.1461182.2126465-.1139525.4345703-.2905883.6450195-.6204223z" fill="#e8aa80"/></g></g><g><g><path d="m24.1399479 19.421854c0 .6667938-.5403957 1.2115517-1.2071896 1.2115517-.6667423 0-1.2115002-.5447578-1.2115002-1.2115517 0-.6667957.5447578-1.2115517 1.2115002-1.2115517.6667939.0000001 1.2071896.544756 1.2071896 1.2115517z" fill="#2d2c2c"/></g></g><g><g><path d="m24.259449 17.5699863h-2.6582031c-.2070313 0-.375-.1679688-.375-.375s.1679688-.375.375-.375h2.6582031c.2070313 0 .375.1679688.375.375s-.1679687.375-.375.375z" fill="#2d2c2c"/></g></g><g><g><path d="m16.4483604 19.421854c0 .6667938-.5403938 1.2115517-1.2071886 1.2115517-.6667423 0-1.2114992-.5447578-1.2114992-1.2115517 0-.6667957.5447569-1.2115517 1.2114992-1.2115517.6667948.0000001 1.2071886.544756 1.2071886 1.2115517z" fill="#2d2c2c"/></g></g><g><g><path d="m16.5680428 17.5699863h-2.6582031c-.2070313 0-.375-.1679688-.375-.375s.1679688-.375.375-.375h2.6582031c.2070313 0 .375.1679688.375.375s-.1679688.375-.375.375z" fill="#2d2c2c"/></g></g><g><g><path d="m16.7173004 25.4727535c-.3048229 0-.4926662.3544674-.3036671.593626.6245689.7903214 1.5831642 1.3011856 2.6688862 1.3011856 1.085495 0 2.0463276-.5106487 2.6730709-1.3006859.1896286-.2390347.0018425-.5941257-.3032722-.5941257z" fill="#e8aa80"/></g></g><g><g><path d="m28.9948006 18.8395176c-.1025391-.09375-.1103516-.2509766-.0175781-.3535156.4775391-.5253906.1181641-1.2412109.1142578-1.2480469-.0625-.1230469-.0146484-.2734375.1083984-.3369141.1191406-.0615234.2724609-.0146484.3369141.1083984.0214844.0419922.5175781 1.0341797-.1884766 1.8125-.0947266.1040135-.2525292.1082593-.3535156.0175782z" fill="#f0b68e"/></g></g><g><g><path d="m8.9196053 18.8219395c-.7060547-.7783203-.2099609-1.7705078-.1884766-1.8125.0644531-.1220703.2099609-.1708984.3359375-.1083984.1220703.0625.171875.2128906.109375.3359375-.0146484.0292969-.3583984.7294922.1142578 1.2490234.0927734.1025391.0849609.2597656-.0175781.3535156-.1010046.0906982-.2588043.0864181-.3535156-.0175781z" fill="#f0b68e"/></g></g><g><g><g><path d="m34.4763794 33.7940025v-3.250494c0-2.4211903 1.9692955-4.3910694 4.3904343-4.3910694 2.4676933 0 4.3795242 2.0166988 4.3795242 4.3910694v3.250494h2.357914v-3.250494c0-3.6968651-2.9816818-6.7489338-6.7374382-6.7489338-3.7209473 0-6.7483482 3.0273514-6.7483482 6.7489338v3.250494z" fill="#e3e2ff"/></g></g><g><g><g><path d="m43.7431641 25.8955822c-1.1414299-.8455791-2.5226707-1.3036118-3.974102-1.3036118-3.727581 0-6.7505226 3.0299911-6.7505226 6.7504768v2.4521389h-.9019585v-3.2483883c0-3.7275372 3.0299911-6.7504768 6.7505188-6.7504768 2.0572776.0000001 3.9561996.9917431 4.8760643 2.0998612z" fill="#c1c1ee"/></g></g></g><g><g><path d="m48.1592216 35.8721962v11.0598717c0 1.1433334-.926857 2.0701904-2.0701942 2.0701904h-14.3626041c-1.1433353 0-2.0701923-.926857-2.0701923-2.0701904v-11.0598717c0-1.1433334.926857-2.0701904 2.0701923-2.0701904h14.3626041c1.1433373 0 2.0701942.926857 2.0701942 2.0701904z" fill="#f9b938"/></g></g><g><g><path d="m48.1607704 35.8743668v11.0598717c0 1.1395874-.9295425 2.0691299-2.0690994 2.0691299h-14.3631783c-.814024 0-1.5177841-.4673996-1.8538303-1.1501007.262579.1312904.5619564.1995621.8717194.1995621h14.3631802c1.1448135 0 2.0743561-.9295425 2.0743561-2.0743866v-11.0598717c0-.3308525-.0787239-.6406784-.2205276-.9190292.7088889.3255958 1.1973799 1.045063 1.1973799 1.8748245z" fill="#ebaf21"/></g></g><g opacity=".4"><g><g><path d="m31.8103409 39.5501518.0087337 4.7247162c0 .3053436-.2529964.5496597-.5496578.5496597-.3053398 0-.5496559-.2530518-.5496559-.5496597l-.0087337-4.7247162c0-.305397.2443161-.5496559.5496578-.5496559.2094345 0 .3838863.1134224.4798965.2791405.0436134.0785446.0697594.1745033.0697594.2705154z" fill="#fff"/></g></g><g><g><path d="m30.7110271 37.3245392v-.6805458c0-.296608.2443161-.5496559.5496578-.5496559.2094345 0 .3838863.1134224.4798965.2879257.0436134.0785446.0697594.1657715.0697594.2617302v.6805458c0 .3053398-.2442627.5496559-.5496559.5496559-.3053417 0-.5496578-.2443161-.5496578-.5496559z" fill="#fff"/></g></g></g></g><g><g><path d="m40.7277946 42.2070923.3999023 2.9700317c.0600586.5-.3300781.9400024-.8300781.9400024h-2.7700195c-.5097656 0-.8999023-.4400024-.829834-.9400024l.3999023-2.9700317c-.7600098-.5499878-1.25-1.4499512-1.25-2.4599609 0-1.6900024 1.3701172-3.0599976 3.0600586-3.0599976s3.0600586 1.3699951 3.0600586 3.0599976c.0000001 1.0100097-.4899902 1.8999633-1.2399902 2.4599609z" fill="#474646"/></g></g><g><g><path d="m38.1498299 46.119915h-.6280365c-.5020027 0-.8889046-.4424934-.8219147-.9400024l.3999023-2.9699707c-1.9144783-1.3858757-1.5930214-4.4370041.7140427-5.3129311.6859894-.2604523 1.3213463-.254406 1.9060745-.0971031-1.5898438.1100464-2.8500977 1.4300537-2.8500977 3.0500488 0 .9124146.4001198 1.7351151 1.0376244 2.2910423.1271629.1108894.1987038.2704506.1761894.4376602l-.3637161 2.7012901c-.0500488.3599854.1298828.6799928.4299317.8399659z" fill="#1b1b1b"/></g></g></g></svg>